<?xml version="1.0" encoding="UTF-8" standalone="no"?>
<svg
   xmlns:dc="http://purl.org/dc/elements/1.1/"
   xmlns:cc="http://creativecommons.org/ns#"
   xmlns:rdf="http://www.w3.org/1999/02/22-rdf-syntax-ns#"
   xmlns:svg="http://www.w3.org/2000/svg"
   xmlns="http://www.w3.org/2000/svg"
   id="svg8"
   version="1.1"
   viewBox="0 0 508.00001 285.74999"
   height="1080"
   width="1920">
  <defs
     id="defs2" />
  <metadata
     id="metadata5">
    <rdf:RDF>
      <cc:Work
         rdf:about="">
        <dc:format>image/svg+xml</dc:format>
        <dc:type
           rdf:resource="http://purl.org/dc/dcmitype/StillImage" />
        <dc:title></dc:title>
      </cc:Work>
    </rdf:RDF>
  </metadata>
  <g
     transform="translate(0,-11.250015)"
     id="layer1">
    <path
       d="m 233.7684,75.226549 a 19.938244,20.977678 0 0 1 10.21298,27.525931 19.938244,20.977678 0 0 1 -26.08015,10.96353 19.938244,20.977678 0 0 1 -10.62696,-27.351896 19.938244,20.977678 0 0 1 25.91146,-11.397707 l -7.49609,19.438622 z"
       id="path4526-5"
       style="opacity:1;fill:#b3b3b3;fill-opacity:1;stroke:#b3b3b3;stroke-width:1.34937501;stroke-miterlimit:4;stroke-dasharray:none;stroke-opacity:1" />
    <path
       d="m 153.67509,45.215257 a 19.938244,20.977678 0 0 1 10.21298,27.525931 19.938244,20.977678 0 0 1 -26.08015,10.963534 19.938244,20.977678 0 0 1 -10.62696,-27.3519 19.938244,20.977678 0 0 1 25.91146,-11.397707 l -7.49609,19.438623 z"
       id="path4526-79"
       style="opacity:1;fill:#b3b3b3;fill-opacity:1;stroke:#b3b3b3;stroke-width:1.34937501;stroke-miterlimit:4;stroke-dasharray:none;stroke-opacity:1" />
    <path
       d="m 203.41685,22.99024 a 19.938244,20.977678 0 0 1 10.21298,27.52593 19.938244,20.977678 0 0 1 -26.08015,10.963535 19.938244,20.977678 0 0 1 -10.62696,-27.3519 19.938244,20.977678 0 0 1 25.91146,-11.397707 l -7.49609,19.438622 z"
       id="path4526-20"
       style="opacity:1;fill:#b3b3b3;fill-opacity:1;stroke:#b3b3b3;stroke-width:1.34937501;stroke-miterlimit:4;stroke-dasharray:none;stroke-opacity:1" />
    <path
       d="m 263.96864,23.746198 a 19.938244,20.977678 0 0 1 10.21298,27.525931 19.938244,20.977678 0 0 1 -26.08015,10.963534 19.938244,20.977678 0 0 1 -10.62696,-27.3519 19.938244,20.977678 0 0 1 25.91146,-11.397707 l -7.49609,19.438623 z"
       id="path4526-23"
       style="opacity:1;fill:#b3b3b3;fill-opacity:1;stroke:#b3b3b3;stroke-width:1.34937501;stroke-miterlimit:4;stroke-dasharray:none;stroke-opacity:1" />
    <path
       d="m 314.54181,44.912866 a 19.938244,20.977678 0 0 1 10.21297,27.525931 19.938244,20.977678 0 0 1 -26.08015,10.963534 19.938244,20.977678 0 0 1 -10.62696,-27.3519 19.938244,20.977678 0 0 1 25.91147,-11.397707 l -7.4961,19.438623 z"
       id="path4526-75"
       style="opacity:1;fill:#b3b3b3;fill-opacity:1;stroke:#b3b3b3;stroke-width:1.34937501;stroke-miterlimit:4;stroke-dasharray:none;stroke-opacity:1" />
    <path
       onclick="showChildren()"
       d="m 234.12746,123.41832 a 19.938244,20.977678 0 0 1 10.21297,27.52593 19.938244,20.977678 0 0 1 -26.08015,10.96354 19.938244,20.977678 0 0 1 -10.62696,-27.3519 19.938244,20.977678 0 0 1 25.91146,-11.39771 l -7.49609,19.43862 z"
       id="offense"
       style="opacity:1;fill:#b3b3b3;fill-opacity:1;stroke:#b3b3b3;stroke-width:1.34899998;stroke-miterlimit:4;stroke-dasharray:none;stroke-opacity:1;image-rendering:auto">
      <title
         id="title4742">Offense</title>
    </path>
    <path
       d="m 90.742187,171.98821 a 19.938244,20.977678 0 0 1 10.212973,27.52593 19.938244,20.977678 0 0 1 -26.080149,10.96353 19.938244,20.977678 0 0 1 -10.62696,-27.3519 19.938244,20.977678 0 0 1 25.911463,-11.39771 l -7.496092,19.43863 z"
       id="path4526-3"
       style="opacity:1;fill:#b3b3b3;fill-opacity:1;stroke:#b3b3b3;stroke-width:1.34937501;stroke-miterlimit:4;stroke-dasharray:none;stroke-opacity:1" />
    <path
       d="m 83.825241,125.87511 a 19.938244,20.977678 0 0 1 10.212975,27.52593 19.938244,20.977678 0 0 1 -26.080151,10.96353 19.938244,20.977678 0 0 1 -10.626961,-27.3519 19.938244,20.977678 0 0 1 25.911463,-11.3977 l -7.496092,19.43862 z"
       id="path4526-6"
       style="opacity:1;fill:#b3b3b3;fill-opacity:1;stroke:#b3b3b3;stroke-width:1.34937501;stroke-miterlimit:4;stroke-dasharray:none;stroke-opacity:1" />
    <path
       d="m 130.31625,201.14536 a 19.938244,20.977678 0 0 1 10.21298,27.52593 19.938244,20.977678 0 0 1 -26.08015,10.96353 19.938244,20.977678 0 0 1 -10.62696,-27.3519 19.938244,20.977678 0 0 1 25.91146,-11.39771 l -7.49609,19.43863 z"
       id="path4526-7"
       style="opacity:1;fill:#b3b3b3;fill-opacity:1;stroke:#b3b3b3;stroke-width:1.34937501;stroke-miterlimit:4;stroke-dasharray:none;stroke-opacity:1" />
    <path
       d="m 188.60019,197.31325 a 19.938244,20.977678 0 0 1 10.21297,27.52593 19.938244,20.977678 0 0 1 -26.08015,10.96353 19.938244,20.977678 0 0 1 -10.62696,-27.3519 19.938244,20.977678 0 0 1 25.91147,-11.3977 l -7.4961,19.43862 z"
       id="path4526-35"
       style="opacity:1;fill:#b3b3b3;fill-opacity:1;stroke:#b3b3b3;stroke-width:1.34937501;stroke-miterlimit:4;stroke-dasharray:none;stroke-opacity:1" />
    <path
       d="m 233.05023,223.39331 a 19.938244,20.977678 0 0 1 10.21298,27.52593 19.938244,20.977678 0 0 1 -26.08015,10.96354 19.938244,20.977678 0 0 1 -10.62696,-27.3519 19.938244,20.977678 0 0 1 25.91146,-11.39771 l -7.49609,19.43862 z"
       id="path4526-62"
       style="opacity:1;fill:#b3b3b3;fill-opacity:1;stroke:#b3b3b3;stroke-width:1.34937501;stroke-miterlimit:4;stroke-dasharray:none;stroke-opacity:1" />
    <path
       d="m 280.14603,200.56386 a 19.938244,20.977678 0 0 1 10.21297,27.52593 19.938244,20.977678 0 0 1 -26.08015,10.96353 19.938244,20.977678 0 0 1 -10.62696,-27.3519 19.938244,20.977678 0 0 1 25.91146,-11.3977 l -7.49609,19.43862 z"
       id="path4526-9"
       style="opacity:1;fill:#b3b3b3;fill-opacity:1;stroke:#b3b3b3;stroke-width:1.34937501;stroke-miterlimit:4;stroke-dasharray:none;stroke-opacity:1" />
    <path
       d="m 332.15555,188.46848 a 19.938244,20.977678 0 0 1 10.21297,27.52593 19.938244,20.977678 0 0 1 -26.08015,10.96353 19.938244,20.977678 0 0 1 -10.62696,-27.3519 19.938244,20.977678 0 0 1 25.91146,-11.39771 l -7.49609,19.43863 z"
       id="path4526-1"
       style="opacity:1;fill:#b3b3b3;fill-opacity:1;stroke:#b3b3b3;stroke-width:1.34937501;stroke-miterlimit:4;stroke-dasharray:none;stroke-opacity:1" />
    <path
       d="m 379.40265,194.66676 a 19.938244,20.977678 0 0 1 10.21297,27.52594 19.938244,20.977678 0 0 1 -26.08015,10.96353 19.938244,20.977678 0 0 1 -10.62696,-27.3519 19.938244,20.977678 0 0 1 25.91147,-11.39771 l -7.4961,19.43863 z"
       id="path4526-2"
       style="opacity:1;fill:#b3b3b3;fill-opacity:1;stroke:#b3b3b3;stroke-width:1.34937501;stroke-miterlimit:4;stroke-dasharray:none;stroke-opacity:1" />
    <path
       d="m 410.54767,152.87326 a 19.938244,20.977678 0 0 1 10.21297,27.52593 19.938244,20.977678 0 0 1 -26.08015,10.96354 19.938244,20.977678 0 0 1 -10.62696,-27.3519 19.938244,20.977678 0 0 1 25.91146,-11.39771 l -7.49609,19.43862 z"
       id="path4526-70"
       style="opacity:1;fill:#b3b3b3;fill-opacity:1;stroke:#b3b3b3;stroke-width:1.34937501;stroke-miterlimit:4;stroke-dasharray:none;stroke-opacity:1" />
    <path
       d="m 390.59036,102.44058 a 19.938244,20.977678 0 0 1 10.21298,27.52593 19.938244,20.977678 0 0 1 -26.08015,10.96353 19.938244,20.977678 0 0 1 -10.62696,-27.3519 19.938244,20.977678 0 0 1 25.91146,-11.39771 l -7.49609,19.43863 z"
       id="path4526-93"
       style="opacity:1;fill:#b3b3b3;fill-opacity:1;stroke:#b3b3b3;stroke-width:1.34937501;stroke-miterlimit:4;stroke-dasharray:none;stroke-opacity:1" />
    <path
       d="m 400.41806,239.26817 a 19.938244,20.977678 0 0 1 10.21298,27.52594 19.938244,20.977678 0 0 1 -26.08016,10.96353 19.938244,20.977678 0 0 1 -10.62696,-27.3519 19.938244,20.977678 0 0 1 25.91147,-11.39771 l -7.4961,19.43863 z"
       id="path4526-60"
       style="opacity:1;fill:#b3b3b3;fill-opacity:1;stroke:#b3b3b3;stroke-width:1.34937501;stroke-miterlimit:4;stroke-dasharray:none;stroke-opacity:1" />
    <path
       d="m 431.41214,200.71439 a 19.938244,20.977678 0 0 1 10.21297,27.52593 19.938244,20.977678 0 0 1 -26.08015,10.96353 19.938244,20.977678 0 0 1 -10.62696,-27.3519 19.938244,20.977678 0 0 1 25.91147,-11.3977 l -7.4961,19.43862 z"
       id="path4526-626"
       style="opacity:1;fill:#b3b3b3;fill-opacity:1;stroke:#b3b3b3;stroke-width:1.34937501;stroke-miterlimit:4;stroke-dasharray:none;stroke-opacity:1" />
    <path
       d="m 460.89429,159.13701 a 19.938244,20.977678 0 0 1 10.21297,27.52593 19.938244,20.977678 0 0 1 -26.08015,10.96354 19.938244,20.977678 0 0 1 -10.62696,-27.3519 19.938244,20.977678 0 0 1 25.91146,-11.39771 l -7.49609,19.43862 z"
       id="path4526-18"
       style="opacity:1;fill:#b3b3b3;fill-opacity:1;stroke:#b3b3b3;stroke-width:1.34937501;stroke-miterlimit:4;stroke-dasharray:none;stroke-opacity:1" />
    <path
       onclick="showChildren()"
       d="m 129.25797,147.19333 a 19.938244,20.977678 0 0 1 10.21298,27.52593 19.938244,20.977678 0 0 1 -26.08015,10.96354 19.938244,20.977678 0 0 1 -10.62696,-27.3519 19.938244,20.977678 0 0 1 25.91146,-11.39771 l -7.49609,19.43862 z"
       id="short-term"
       style="opacity:1;fill:#b3b3b3;fill-opacity:1;stroke:#b3b3b3;stroke-width:1.34937501;stroke-miterlimit:4;stroke-dasharray:none;stroke-opacity:1">
      <title
         id="title4744">Short Term Money</title>
    </path>
    <path
       onclick="showChildren()"
       d="m 234.10855,172.66892 a 19.938244,20.977678 0 0 1 10.21298,27.52593 19.938244,20.977678 0 0 1 -26.08015,10.96353 19.938244,20.977678 0 0 1 -10.62697,-27.3519 19.938244,20.977678 0 0 1 25.91147,-11.39771 l -7.49609,19.43863 z"
       id="mid-term"
       style="opacity:1;fill:#b3b3b3;fill-opacity:1;stroke:#b3b3b3;stroke-width:1.34899998;stroke-miterlimit:4;stroke-dasharray:none;stroke-opacity:1">
      <title
         id="title4746">Mid Term Money</title>
    </path>
    <path
       onclick="showChildren()"
       d="m 358.00928,145.53006 a 19.938244,20.977678 0 0 1 10.21297,27.52593 19.938244,20.977678 0 0 1 -26.08015,10.96354 19.938244,20.977678 0 0 1 -10.62696,-27.3519 19.938244,20.977678 0 0 1 25.91146,-11.39771 l -7.49609,19.43862 z"
       id="long-term"
       style="display:inline;opacity:1;fill:#b3b3b3;fill-opacity:1;stroke:#b3b3b3;stroke-width:1.34937501;stroke-miterlimit:4;stroke-dasharray:none;stroke-opacity:1">
      <title
         id="title4746-6">Long Term Money</title>
    </path>
  </g>
</svg>
